<svg width="17" height="20" viewBox="0 0 17 20" fill="none" xmlns="http://www.w3.org/2000/svg">
<path d="M8.42754 20C9.56673 20 10.4988 19.1 10.4988 18H6.35628C6.35628 19.1 7.28835 20 8.42754 20ZM14.6413 14V9C14.6413 5.93 12.9532 3.36 9.98098 2.68V2C9.98098 1.17 9.28711 0.5 8.42754 0.5C7.56797 0.5 6.8741 1.17 6.8741 2V2.68C3.9122 3.36 2.21377 5.92 2.21377 9V14L0.142517 16V17H16.7126V16L14.6413 14ZM12.5701 15H4.28503V9C4.28503 6.52 5.84883 4.5 8.42754 4.5C11.0063 4.5 12.5701 6.52 12.5701 9V15Z" fill="#818798"/>
</svg>
