<svg width="18" height="19" viewBox="0 0 18 18" fill="none" xmlns="http://www.w3.org/2000/svg">
<path d="M13.9502 6.7498H12.8072C13.0232 6.3448 13.1402 5.8858 13.1402 5.3998C13.1402 3.7888 11.8262 2.4748 10.2152 2.4748C9.9992 2.4748 9.79219 2.5018 9.59419 2.5378C9.04519 2.0788 8.33419 1.7998 7.56019 1.7998C6.25519 1.7998 5.1302 2.6008 4.6532 3.7348C3.5192 4.0948 2.7002 5.1568 2.7002 6.4078C2.7002 7.7668 3.6632 8.9008 4.9502 9.1618V15.2998H12.6002V13.9498H13.9502C14.6972 13.9498 15.3002 13.3468 15.3002 12.5998V8.0998C15.3002 7.3528 14.6972 6.7498 13.9502 6.7498ZM11.2502 13.9498H6.3002V9.1168C6.7592 8.9818 7.1732 8.7298 7.5062 8.3968L8.75719 7.1458C9.00919 6.8938 9.3512 6.7498 9.7112 6.7498H11.2502V13.9498ZM9.7112 5.3998C8.9912 5.3998 8.3162 5.6788 7.8032 6.1918L6.5522 7.4428C6.2642 7.7308 5.8592 7.9018 5.4182 7.8748C4.6802 7.8298 4.0862 7.2178 4.0502 6.4798C4.0142 5.6428 4.6802 4.9498 5.5082 4.9498C5.6342 4.9498 5.7512 4.8598 5.7692 4.7338C5.8772 3.8338 6.65119 3.1498 7.56019 3.1498C8.19919 3.1498 8.7662 3.4828 9.0812 3.9868C9.1442 4.0948 9.2882 4.1218 9.3872 4.0588C9.6302 3.9148 9.9092 3.8248 10.2152 3.8248C11.0792 3.8248 11.7902 4.5358 11.7902 5.3998H9.7112ZM13.9502 12.5998H12.6002V8.0998H13.9502V12.5998Z" fill="#EBD947"/>
</svg>
