<svg width="36" height="36" viewBox="0 0 36 36" fill="none" xmlns="http://www.w3.org/2000/svg">
<circle cx="18" cy="18" r="18" fill="white"/>
<path d="M20.625 19.5H20.0325L19.8225 19.2975C20.5575 18.4425 21 17.3325 21 16.125C21 13.4325 18.8175 11.25 16.125 11.25C13.4325 11.25 11.25 13.4325 11.25 16.125C11.25 18.8175 13.4325 21 16.125 21C17.3325 21 18.4425 20.5575 19.2975 19.8225L19.5 20.0325V20.625L23.25 24.3675L24.3675 23.25L20.625 19.5V19.5ZM16.125 19.5C14.2575 19.5 12.75 17.9925 12.75 16.125C12.75 14.2575 14.2575 12.75 16.125 12.75C17.9925 12.75 19.5 14.2575 19.5 16.125C19.5 17.9925 17.9925 19.5 16.125 19.5Z" fill="#222222"/>
</svg>
