<svg width="44" height="44" viewBox="0 0 44 44" fill="none" xmlns="http://www.w3.org/2000/svg">
<g filter="url(#filter0_d_870_11093)">
<circle cx="22" cy="20" r="18" fill="white"/>
<path d="M24.625 21.5H24.0325L23.8225 21.2975C24.5575 20.4425 25 19.3325 25 18.125C25 15.4325 22.8175 13.25 20.125 13.25C17.4325 13.25 15.25 15.4325 15.25 18.125C15.25 20.8175 17.4325 23 20.125 23C21.3325 23 22.4425 22.5575 23.2975 21.8225L23.5 22.0325V22.625L27.25 26.3675L28.3675 25.25L24.625 21.5ZM20.125 21.5C18.2575 21.5 16.75 19.9925 16.75 18.125C16.75 16.2575 18.2575 14.75 20.125 14.75C21.9925 14.75 23.5 16.2575 23.5 18.125C23.5 19.9925 21.9925 21.5 20.125 21.5Z" fill="#222222"/>
</g>
<defs>
<filter id="filter0_d_870_11093" x="0" y="0" width="44" height="44" filterUnits="userSpaceOnUse" color-interpolation-filters="sRGB">
<feFlood flood-opacity="0" result="BackgroundImageFix"/>
<feColorMatrix in="SourceAlpha" type="matrix" values="0 0 0 0 0 0 0 0 0 0 0 0 0 0 0 0 0 0 127 0" result="hardAlpha"/>
<feOffset dy="2"/>
<feGaussianBlur stdDeviation="2"/>
<feComposite in2="hardAlpha" operator="out"/>
<feColorMatrix type="matrix" values="0 0 0 0 0 0 0 0 0 0 0 0 0 0 0 0 0 0 0.2 0"/>
<feBlend mode="normal" in2="BackgroundImageFix" result="effect1_dropShadow_870_11093"/>
<feBlend mode="normal" in="SourceGraphic" in2="effect1_dropShadow_870_11093" result="shape"/>
</filter>
</defs>
</svg>
