<svg width="17" height="20" viewBox="0 0 17 20" fill="none" xmlns="http://www.w3.org/2000/svg">
<path d="M8.42748 10C7.28829 10 6.35622 9.1 6.35622 8C6.35622 6.9 7.28829 6 8.42748 6C9.56667 6 10.4987 6.9 10.4987 8C10.4987 9.1 9.56667 10 8.42748 10ZM14.6412 8.2C14.6412 4.57 11.8968 2 8.42748 2C4.95813 2 2.21371 4.57 2.21371 8.2C2.21371 10.54 4.23319 13.64 8.42748 17.34C12.6218 13.64 14.6412 10.54 14.6412 8.2ZM8.42748 0C12.7771 0 16.7125 3.22 16.7125 8.2C16.7125 11.52 13.9474 15.45 8.42748 20C2.90758 15.45 0.142456 11.52 0.142456 8.2C0.142456 3.22 4.07784 0 8.42748 0Z" fill="#818798"/>
</svg>
