<svg width="25" height="24" viewBox="0 0 25 24" fill="none" xmlns="http://www.w3.org/2000/svg">
<g clip-path="url(#clip0_748_6172)">
<path d="M12.4276 12C11.2884 12 10.3563 11.1 10.3563 10C10.3563 8.9 11.2884 8 12.4276 8C13.5668 8 14.4989 8.9 14.4989 10C14.4989 11.1 13.5668 12 12.4276 12ZM18.6414 10.2C18.6414 6.57 15.897 4 12.4276 4C8.95825 4 6.21383 6.57 6.21383 10.2C6.21383 12.54 8.23331 15.64 12.4276 19.34C16.6219 15.64 18.6414 12.54 18.6414 10.2ZM12.4276 2C16.7772 2 20.7126 5.22 20.7126 10.2C20.7126 13.52 17.9475 17.45 12.4276 22C6.9077 17.45 4.14258 13.52 4.14258 10.2C4.14258 5.22 8.07796 2 12.4276 2Z" fill="#818798"/>
</g>
<defs>
<clipPath id="clip0_748_6172">
<rect width="24.8551" height="24" fill="white"/>
</clipPath>
</defs>
</svg>
