<svg width="18" height="19" viewBox="0 0 18 19" fill="none" xmlns="http://www.w3.org/2000/svg">
<path d="M16.4249 7.1675L15.6374 3.89C15.4724 3.215 14.8874 2.75 14.2049 2.75H3.78738C3.11238 2.75 2.51988 3.2225 2.36238 3.89L1.57488 7.1675C1.39488 7.9325 1.55988 8.7125 2.03988 9.3275C2.09988 9.41 2.18238 9.47 2.24988 9.545V14.75C2.24988 15.575 2.92488 16.25 3.74988 16.25H14.2499C15.0749 16.25 15.7499 15.575 15.7499 14.75V9.545C15.8174 9.4775 15.8999 9.41 15.9599 9.335C16.4399 8.72 16.6124 7.9325 16.4249 7.1675ZM14.1824 4.2425L14.9699 7.52C15.0449 7.835 14.9774 8.15 14.7824 8.3975C14.6774 8.5325 14.4524 8.75 14.0774 8.75C13.6199 8.75 13.2224 8.3825 13.1699 7.895L12.7349 4.25L14.1824 4.2425ZM9.74988 4.25H11.2199L11.6249 7.64C11.6624 7.9325 11.5724 8.225 11.3774 8.4425C11.2124 8.6375 10.9724 8.75 10.6649 8.75C10.1624 8.75 9.74988 8.3075 9.74988 7.7675V4.25ZM6.36738 7.64L6.77988 4.25H8.24988V7.7675C8.24988 8.3075 7.83738 8.75 7.28238 8.75C7.02738 8.75 6.79488 8.6375 6.61488 8.4425C6.42738 8.225 6.33738 7.9325 6.36738 7.64ZM3.02988 7.52L3.78738 4.25H5.26488L4.82988 7.895C4.76988 8.3825 4.37988 8.75 3.92238 8.75C3.55488 8.75 3.32238 8.5325 3.22488 8.3975C3.02238 8.1575 2.95488 7.835 3.02988 7.52ZM3.74988 14.75V10.2275C3.80988 10.235 3.86238 10.25 3.92238 10.25C4.57488 10.25 5.16738 9.98 5.60238 9.5375C6.05238 9.9875 6.65238 10.25 7.33488 10.25C7.98738 10.25 8.57238 9.98 9.00738 9.5525C9.44988 9.98 10.0499 10.25 10.7249 10.25C11.3549 10.25 11.9549 9.9875 12.4049 9.5375C12.8399 9.98 13.4324 10.25 14.0849 10.25C14.1449 10.25 14.1974 10.235 14.2574 10.2275V14.75H3.74988Z" fill="#5CC7D6"/>
</svg>
