<svg width="17" height="16" viewBox="0 0 17 16" fill="none" xmlns="http://www.w3.org/2000/svg">
<path d="M8.42748 1.9C9.62881 1.9 10.6023 2.84 10.6023 4C10.6023 5.16 9.62881 6.1 8.42748 6.1C7.22615 6.1 6.25266 5.16 6.25266 4C6.25266 2.84 7.22615 1.9 8.42748 1.9ZM8.42748 10.9C11.5033 10.9 14.7448 12.36 14.7448 13V14.1H2.11015V13C2.11015 12.36 5.35166 10.9 8.42748 10.9ZM8.42748 0C6.13874 0 4.28497 1.79 4.28497 4C4.28497 6.21 6.13874 8 8.42748 8C10.7162 8 12.57 6.21 12.57 4C12.57 1.79 10.7162 0 8.42748 0ZM8.42748 9C5.66235 9 0.142456 10.34 0.142456 13V16H16.7125V13C16.7125 10.34 11.1926 9 8.42748 9Z" fill="#818798"/>
</svg>
