<svg width="25" height="24" viewBox="0 0 25 24" fill="none" xmlns="http://www.w3.org/2000/svg">
<g clip-path="url(#clip0_748_6162)">
<path d="M12.4276 5.9C13.6289 5.9 14.6024 6.84 14.6024 8C14.6024 9.16 13.6289 10.1 12.4276 10.1C11.2263 10.1 10.2528 9.16 10.2528 8C10.2528 6.84 11.2263 5.9 12.4276 5.9ZM12.4276 14.9C15.5034 14.9 18.7449 16.36 18.7449 17V18.1H6.11027V17C6.11027 16.36 9.35179 14.9 12.4276 14.9ZM12.4276 4C10.1389 4 8.28509 5.79 8.28509 8C8.28509 10.21 10.1389 12 12.4276 12C14.7163 12 16.5701 10.21 16.5701 8C16.5701 5.79 14.7163 4 12.4276 4ZM12.4276 13C9.66247 13 4.14258 14.34 4.14258 17V20H20.7126V17C20.7126 14.34 15.1927 13 12.4276 13Z" fill="#818798"/>
</g>
<defs>
<clipPath id="clip0_748_6162">
<rect width="24.8551" height="24" fill="white"/>
</clipPath>
</defs>
</svg>
