<svg width="25" height="24" viewBox="0 0 25 24" fill="none" xmlns="http://www.w3.org/2000/svg">
<g clip-path="url(#clip0_878_11974)">
<path d="M12.4276 22C13.5668 22 14.4989 21.1 14.4989 20H10.3563C10.3563 21.1 11.2884 22 12.4276 22ZM18.6414 16V11C18.6414 7.93 16.9533 5.36 13.981 4.68V4C13.981 3.17 13.2872 2.5 12.4276 2.5C11.568 2.5 10.8742 3.17 10.8742 4V4.68C7.91226 5.36 6.21383 7.92 6.21383 11V16L4.14258 18V19H20.7126V18L18.6414 16ZM16.5701 17H8.28509V11C8.28509 8.52 9.84889 6.5 12.4276 6.5C15.0063 6.5 16.5701 8.52 16.5701 11V17Z" fill="#222222"/>
</g>
<defs>
<clipPath id="clip0_878_11974">
<rect width="24.8551" height="24" fill="white"/>
</clipPath>
</defs>
</svg>
