<svg viewBox="0 0 18 19"
    xmlns="http://www.w3.org/2000/svg">
    <path fill-rule="evenodd" clip-rule="evenodd" d="M16.5111 6.44L17.4454 13.0057C17.6339 14.3257 16.6139 15.5 15.2768 15.5C14.7025 15.5 14.1454 15.2686 13.7339 14.8571L11.8054 12.9286H6.66251L4.72537 14.8571C4.31394 15.2686 3.76537 15.5 3.18251 15.5C1.85394 15.5 0.833943 14.3257 1.02251 13.0057L1.9568 6.44C2.1968 4.75143 3.64537 3.5 5.35108 3.5H13.1168C14.8225 3.5 16.2711 4.75143 16.5111 6.44ZM15.2854 13.7857C15.4654 13.7857 15.5768 13.7 15.6454 13.6229C15.7054 13.5457 15.7739 13.4257 15.7482 13.2543L14.8139 6.68857C14.6939 5.84857 13.9654 5.21429 13.1168 5.21429H5.35108C4.50251 5.21429 3.77394 5.84857 3.64537 6.68L2.71109 13.2457C2.68537 13.4257 2.75394 13.5457 2.82251 13.6229C2.89109 13.7 3.00251 13.7857 3.18251 13.7857C3.31109 13.7857 3.43109 13.7343 3.5168 13.6486L5.95109 11.2143H12.5168L14.9511 13.6486C15.0368 13.7343 15.1568 13.7857 15.2854 13.7857ZM5.80559 6.07129H6.66274V7.78557H8.37702V8.64272H6.66274V10.357H5.80559V8.64272H4.09131V7.78557H5.80559V6.07129ZM13.5197 10.3574C13.9931 10.3574 14.3769 9.9736 14.3769 9.50021C14.3769 9.02682 13.9931 8.64307 13.5197 8.64307C13.0464 8.64307 12.6626 9.02682 12.6626 9.50021C12.6626 9.9736 13.0464 10.3574 13.5197 10.3574ZM12.6625 6.92843C12.6625 7.40182 12.2788 7.78557 11.8054 7.78557C11.332 7.78557 10.9482 7.40182 10.9482 6.92843C10.9482 6.45504 11.332 6.07129 11.8054 6.07129C12.2788 6.07129 12.6625 6.45504 12.6625 6.92843Z" />
</svg>
