<svg id="Layer_1" data-name="Layer 1" xmlns="http://www.w3.org/2000/svg" xmlns:xlink="http://www.w3.org/1999/xlink" viewBox="0 0 325.21 470.67"><defs><style>.cls-1{fill:#8632f4;}.cls-2{fill:#ec6230;}.cls-3{fill:#e9d748;}.cls-4{fill:url(#linear-gradient);}.cls-5{fill:#e2ce4a;}.cls-6{fill:url(#linear-gradient-2);}.cls-7{fill:#6e31f4;}.cls-8{fill:#5cc5d4;}.cls-9{fill:#5db6c8;}.cls-10{fill:url(#linear-gradient-3);}.cls-11{fill:#df522a;}.cls-12{fill:url(#linear-gradient-4);}.cls-13{fill:url(#linear-gradient-5);}.cls-14{fill:url(#linear-gradient-6);}.cls-15{fill:url(#linear-gradient-7);}.cls-16{fill:url(#linear-gradient-8);}</style><linearGradient id="linear-gradient" y1="407.77" x2="162.61" y2="407.77" gradientUnits="userSpaceOnUse"><stop offset="0" stop-color="#fff" stop-opacity="0.03"/><stop offset="0.8" stop-color="#e9d748" stop-opacity="0.8"/></linearGradient><linearGradient id="linear-gradient-2" x1="28.68" y1="308" x2="162.61" y2="308" gradientUnits="userSpaceOnUse"><stop offset="0" stop-color="#fff" stop-opacity="0.02"/><stop offset="0.8" stop-color="#8632f4" stop-opacity="0.5"/></linearGradient><linearGradient id="linear-gradient-3" x1="99.33" y1="77.65" x2="162.61" y2="77.65" gradientUnits="userSpaceOnUse"><stop offset="0" stop-color="#fff" stop-opacity="0.03"/><stop offset="0.8" stop-color="#ec6d43" stop-opacity="0.5"/></linearGradient><linearGradient id="linear-gradient-4" x1="63.19" y1="205.99" x2="162.61" y2="205.99" gradientUnits="userSpaceOnUse"><stop offset="0" stop-color="#fff" stop-opacity="0.03"/><stop offset="0.8" stop-color="#5cc5d4" stop-opacity="0.8"/></linearGradient><linearGradient id="linear-gradient-5" x1="99.33" y1="77.65" x2="225.88" y2="77.65" gradientUnits="userSpaceOnUse"><stop offset="0" stop-color="#fff" stop-opacity="0.03"/><stop offset="0.8" stop-color="#ec6d43"/></linearGradient><linearGradient id="linear-gradient-6" x1="63.19" y1="205.99" x2="262.03" y2="205.99" gradientUnits="userSpaceOnUse"><stop offset="0" stop-color="#fff" stop-opacity="0.03"/><stop offset="0.8" stop-color="#5cc5d4"/></linearGradient><linearGradient id="linear-gradient-7" x1="28.68" y1="308" x2="296.53" y2="308" gradientUnits="userSpaceOnUse"><stop offset="0" stop-color="#fff" stop-opacity="0.03"/><stop offset="0.8" stop-color="#8632f4"/></linearGradient><linearGradient id="linear-gradient-8" y1="407.77" x2="325.21" y2="407.77" gradientUnits="userSpaceOnUse"><stop offset="0" stop-color="#fff" stop-opacity="0.03"/><stop offset="0.8" stop-color="#e9d748"/></linearGradient></defs><path class="cls-1" d="M132.13,364.71c9.87.55,20.06.84,30.48.84h0C152.19,365.55,142,365.26,132.13,364.71Z"/><path class="cls-1" d="M69.3,356.9c-2.64-.55-5.22-1.11-7.75-1.7C64.08,355.79,66.66,356.35,69.3,356.9Z"/><path class="cls-1" d="M132.13,364.71c-14.8-.83-28.9-2.24-42-4.16C103.23,362.47,117.33,363.88,132.13,364.71Z"/><path class="cls-2" d="M244.27,359.09l-1.22.2Z"/><path class="cls-2" d="M275.58,352.12q-5.7,1.62-11.92,3.08Q269.87,353.75,275.58,352.12Z"/><path class="cls-2" d="M293.72,346c-1.91.77-3.89,1.51-6,2.24C289.83,347.53,291.81,346.79,293.72,346Z"/><path class="cls-3" d="M132.13,364.71c-14.8-.83-28.9-2.24-42-4.16-7.27-1.07-14.24-2.29-20.84-3.65-2.64-.55-5.22-1.11-7.75-1.7a203.72,203.72,0,0,1-32.87-10.33L4.11,412.12,0,423.36v.06c1,26.14,73.41,47.25,162.61,47.25V365.55C152.19,365.55,142,365.26,132.13,364.71Z"/><path class="cls-4" d="M132.13,364.71c-14.8-.83-28.9-2.24-42-4.16-7.27-1.07-14.24-2.29-20.84-3.65-2.64-.55-5.22-1.11-7.75-1.7a203.72,203.72,0,0,1-32.87-10.33L4.11,412.12,0,423.36v.06c1,26.14,73.41,47.25,162.61,47.25V365.55C152.19,365.55,142,365.26,132.13,364.71Z"/><path class="cls-5" d="M325.21,423.42v-.06l-4.1-11.24-24.58-67.25c-.92.39-1.86.77-2.81,1.15-1.91.77-3.89,1.51-6,2.24s-4.19,1.44-6.39,2.13c-1.88.59-3.82,1.17-5.8,1.73q-5.7,1.62-11.92,3.08c-2.52.59-5.11,1.15-7.75,1.7-3.76.78-7.65,1.5-11.64,2.19l-1.22.2a493.08,493.08,0,0,1-80.44,6.26V470.67h0C251.8,470.67,324.21,449.56,325.21,423.42Z"/><path class="cls-1" d="M69.3,356.9c6.6,1.36,13.57,2.58,20.84,3.65,13.09,1.92,27.19,3.33,42,4.16,9.87.55,20.06.84,30.48.84V260.42c-37.45,0-71.94-3.72-99.42-10L28.68,344.87A203.72,203.72,0,0,0,61.55,355.2C64.08,355.79,66.66,356.35,69.3,356.9Z"/><path class="cls-6" d="M69.3,356.9c6.6,1.36,13.57,2.58,20.84,3.65,13.09,1.92,27.19,3.33,42,4.16,9.87.55,20.06.84,30.48.84V260.42c-37.45,0-71.94-3.72-99.42-10L28.68,344.87A203.72,203.72,0,0,0,61.55,355.2C64.08,355.79,66.66,356.35,69.3,356.9Z"/><path class="cls-7" d="M162.61,365.55h0a493.08,493.08,0,0,0,80.44-6.26l1.22-.2c4-.69,7.88-1.41,11.64-2.19,2.64-.55,5.23-1.11,7.75-1.7q6.21-1.45,11.92-3.08c2-.56,3.92-1.14,5.8-1.73q3.3-1,6.39-2.13c2.06-.73,4-1.47,6-2.24.95-.38,1.89-.76,2.81-1.15L262,250.45c-27.49,6.25-62,10-99.42,10Z"/><path class="cls-2" d="M281.38,350.39c-1.88.59-3.82,1.17-5.8,1.73C277.56,351.56,279.5,351,281.38,350.39Z"/><path class="cls-2" d="M255.91,356.9c-3.76.78-7.65,1.5-11.64,2.19C248.26,358.4,252.15,357.68,255.91,356.9Z"/><path class="cls-2" d="M162.61,365.55h0a493.08,493.08,0,0,0,80.44-6.26,493.08,493.08,0,0,1-80.44,6.26Z"/><path class="cls-8" d="M162.61,155.3a516.43,516.43,0,0,1-63.28-3.75l-36.14,98.9c27.48,6.25,62,10,99.42,10Z"/><path class="cls-9" d="M162.61,260.42c37.44,0,71.93-3.72,99.42-10l-36.15-98.9a516.38,516.38,0,0,1-63.27,3.75Z"/><path class="cls-2" d="M162.61,0A11.11,11.11,0,0,0,152,7.42L99.33,151.55a516.43,516.43,0,0,0,63.28,3.75Z"/><path class="cls-10" d="M162.61,0A11.11,11.11,0,0,0,152,7.42L99.33,151.55a516.43,516.43,0,0,0,63.28,3.75Z"/><path class="cls-11" d="M225.88,151.55,173.21,7.42A11.09,11.09,0,0,0,162.61,0V155.3A516.38,516.38,0,0,0,225.88,151.55Z"/><path class="cls-12" d="M162.61,155.3a516.43,516.43,0,0,1-63.28-3.75l-36.14,98.9c27.48,6.25,62,10,99.42,10Z"/><path class="cls-13" d="M162.61,1.2a9.88,9.88,0,0,1,9.47,6.63l52.16,142.71a517,517,0,0,1-61.63,3.56A516.79,516.79,0,0,1,101,150.54L153.13,7.83a9.88,9.88,0,0,1,9.48-6.63m0-1.2A11.11,11.11,0,0,0,152,7.42L99.33,151.55a516.43,516.43,0,0,0,63.28,3.75,516.38,516.38,0,0,0,63.27-3.75L173.21,7.42A11.09,11.09,0,0,0,162.61,0Z"/><path class="cls-14" d="M225.08,152.86l35.35,96.72c-28.33,6.31-62.12,9.64-97.82,9.64s-69.49-3.33-97.83-9.64l35.35-96.72a517.9,517.9,0,0,0,62.48,3.64,517.86,517.86,0,0,0,62.47-3.64m.8-1.31a516.38,516.38,0,0,1-63.27,3.75,516.43,516.43,0,0,1-63.28-3.75l-36.14,98.9c27.48,6.25,62,10,99.42,10s71.93-3.72,99.42-10l-36.15-98.9Z"/><path class="cls-15" d="M261.26,251.86,295,344.2l-1.74.71c-1.88.75-3.87,1.5-5.9,2.22s-4.17,1.43-6.35,2.11c-1.75.56-3.64,1.12-5.77,1.72-3.84,1.1-7.84,2.13-11.87,3.07-2.5.58-5.1,1.15-7.71,1.69-3.69.76-7.59,1.5-11.6,2.18l-1.22.21a495,495,0,0,1-80.24,6.23c-10.23,0-20.46-.28-30.41-.83-14.54-.81-28.64-2.21-41.89-4.15-7.19-1.05-14.18-2.28-20.77-3.64-2.61-.54-5.21-1.11-7.71-1.69a204.41,204.41,0,0,1-31.62-9.83L64,251.86c28.57,6.39,62.65,9.77,98.66,9.77s70.09-3.38,98.65-9.77m.77-1.41c-27.49,6.25-62,10-99.42,10s-71.94-3.72-99.42-10L28.68,344.87A203.72,203.72,0,0,0,61.55,355.2c2.53.59,5.11,1.15,7.75,1.7,6.6,1.36,13.57,2.58,20.84,3.65,13.09,1.92,27.19,3.33,42,4.16,9.87.55,20.06.84,30.48.84h0a493.08,493.08,0,0,0,80.44-6.26l1.22-.2c4-.69,7.88-1.41,11.64-2.19,2.64-.55,5.22-1.11,7.75-1.7q6.21-1.45,11.92-3.08c2-.56,3.92-1.14,5.8-1.73q3.3-1,6.39-2.13c2.06-.73,4-1.47,6-2.24.95-.38,1.89-.76,2.81-1.15L262,250.45Z"/><path class="cls-16" d="M295.13,348.05,318.85,413l3.94,10.77c-.82,11.24-17.71,22.45-46.48,30.82-30.43,8.85-70.81,13.72-113.7,13.72S79.33,463.39,48.9,454.54C20.16,446.18,3.28,435,2.43,423.72L6.36,413l23.72-64.9A212.26,212.26,0,0,0,61,357.54c2.53.59,5.16,1.17,7.81,1.71,6.65,1.38,13.71,2.61,21,3.68,13.36,1.95,27.56,3.36,42.21,4.18,10,.56,20.32.84,30.61.84a497.86,497.86,0,0,0,80.84-6.29l1.22-.2c4.06-.7,8-1.44,11.73-2.21,2.64-.54,5.27-1.12,7.8-1.71,4.09-1,8.14-2,12-3.11,2.16-.61,4.08-1.18,5.87-1.75,2.21-.69,4.39-1.42,6.46-2.15s4.11-1.5,6-2.27l.52-.21m1.4-3.18c-.92.39-1.86.77-2.81,1.15-1.91.77-3.89,1.51-6,2.24s-4.19,1.44-6.39,2.13c-1.88.59-3.82,1.17-5.8,1.73q-5.7,1.62-11.92,3.08c-2.53.59-5.11,1.15-7.75,1.7-3.76.78-7.65,1.5-11.64,2.19l-1.22.2a493.08,493.08,0,0,1-80.44,6.26c-10.42,0-20.61-.29-30.48-.84-14.8-.83-28.9-2.24-42-4.16-7.27-1.07-14.24-2.29-20.84-3.65-2.64-.55-5.22-1.11-7.75-1.7a203.72,203.72,0,0,1-32.87-10.33L4.11,412.12,0,423.36v.06c1,26.14,73.41,47.25,162.61,47.25h0c89.19,0,161.6-21.11,162.6-47.25v-.06l-4.1-11.24-24.58-67.25Z"/></svg>