<svg width="18" height="19" viewBox="0 0 16 16" fill="none" xmlns="http://www.w3.org/2000/svg">
<path d="M7.9925 0.5C3.8525 0.5 0.5 3.86 0.5 8C0.5 12.14 3.8525 15.5 7.9925 15.5C12.14 15.5 15.5 12.14 15.5 8C15.5 3.86 12.14 0.5 7.9925 0.5ZM13.6025 5.87L9.845 5.5475L8.345 2.015C10.7525 2.1575 12.7775 3.7175 13.6025 5.87ZM9.8 10.565L8 9.485L6.2075 10.565L6.68 8.525L5.0975 7.1525L7.1825 6.9725L8 5.045L8.8175 6.965L10.9025 7.145L9.32 8.5175L9.8 10.565ZM7.655 2.015L6.155 5.555L2.39 5.8775C3.215 3.7175 5.24 2.15 7.655 2.015ZM2 8C2 7.52 2.06 7.055 2.1725 6.605L5.015 9.065L4.1825 12.6275C2.8475 11.525 2 9.86 2 8ZM4.88 13.115L8 11.2325L11.12 13.1075C10.205 13.67 9.14 14 7.9925 14C6.8525 14 5.7875 13.67 4.88 13.115ZM11.8175 12.6275L10.985 9.065L13.8275 6.605C13.9325 7.0475 14 7.52 14 8C14 9.86 13.145 11.525 11.8175 12.6275Z" fill="#FF6433"/>
</svg>
