<svg width="20" height="20" viewBox="0 0 20 20" fill="none" xmlns="http://www.w3.org/2000/svg">
<path d="M9.99 0C4.47 0 0 4.48 0 10C0 15.52 4.47 20 9.99 20C15.52 20 20 15.52 20 10C20 4.48 15.52 0 9.99 0ZM17.47 7.16L12.46 6.73L10.46 2.02C13.67 2.21 16.37 4.29 17.47 7.16ZM12.4 13.42L10 11.98L7.61 13.42L8.24 10.7L6.13 8.87L8.91 8.63L10 6.06L11.09 8.62L13.87 8.86L11.76 10.69L12.4 13.42ZM9.54 2.02L7.54 6.74L2.52 7.17C3.62 4.29 6.32 2.2 9.54 2.02ZM2 10C2 9.36 2.08 8.74 2.23 8.14L6.02 11.42L4.91 16.17C3.13 14.7 2 12.48 2 10ZM5.84 16.82L10 14.31L14.16 16.81C12.94 17.56 11.52 18 9.99 18C8.47 18 7.05 17.56 5.84 16.82ZM15.09 16.17L13.98 11.42L17.77 8.14C17.91 8.73 18 9.36 18 10C18 12.48 16.86 14.7 15.09 16.17Z" fill="white"/>
</svg>
