<svg width="36" height="36" viewBox="0 0 36 36" fill="none" xmlns="http://www.w3.org/2000/svg">
<circle cx="18" cy="18" r="18" fill="#FF6433"/>
<path d="M25.0575 17.685L18.3075 10.935C18.0375 10.665 17.6625 10.5 17.25 10.5H12C11.175 10.5 10.5 11.175 10.5 12V17.25C10.5 17.6625 10.665 18.0375 10.9425 18.315L17.6925 25.065C17.9625 25.335 18.3375 25.5 18.75 25.5C19.1625 25.5 19.5375 25.335 19.8075 25.0575L25.0575 19.8075C25.335 19.5375 25.5 19.1625 25.5 18.75C25.5 18.3375 25.3275 17.955 25.0575 17.685ZM13.125 14.25C12.5025 14.25 12 13.7475 12 13.125C12 12.5025 12.5025 12 13.125 12C13.7475 12 14.25 12.5025 14.25 13.125C14.25 13.7475 13.7475 14.25 13.125 14.25Z" fill="white"/>
</svg>
