<svg width="117" height="36" viewBox="0 0 117 36" fill="none" xmlns="http://www.w3.org/2000/svg">
<rect width="117" height="36" rx="4" fill="#242528"/>
<path d="M8.66298 14H13.2555V13.2196H9.88536V13.1644L11.5014 11.4931C12.7583 10.2017 13.1243 9.58702 13.1312 8.79972C13.1243 7.69475 12.2127 6.83149 10.9282 6.83149C9.65055 6.83149 8.6837 7.67403 8.69061 8.92403H9.52624C9.52624 8.12983 10.058 7.59807 10.9006 7.59807C11.6948 7.59807 12.3025 8.06768 12.3094 8.79972C12.3025 9.44889 11.9019 9.92541 11.0663 10.8163L8.65608 13.3577L8.66298 14ZM15.5399 14.0552C15.8852 14.0552 16.1683 13.7721 16.1683 13.4268C16.1683 13.0815 15.8852 12.7983 15.5399 12.7983C15.1946 12.7983 14.9045 13.0815 14.9114 13.4268C14.9045 13.7721 15.1946 14.0552 15.5399 14.0552Z" fill="#D5D7DD"/>
<path d="M28.1409 6.12017H27.3743V12.6257H28.1409V9.62845H29.4461V8.97928H28.1409V6.12017ZM21.3729 7.81215H26.5456V7.1837H24.3425V6.12017H23.5829V7.1837H21.3729V7.81215ZM21.8702 9.9116C21.8633 10.8854 22.7058 11.5138 23.9627 11.5138C25.1989 11.5138 26.0414 10.8854 26.0483 9.9116C26.0414 8.92403 25.1989 8.28867 23.9627 8.28867C22.7058 8.28867 21.8633 8.92403 21.8702 9.9116ZM22.6022 9.9116C22.5953 9.29005 23.1409 8.8895 23.9627 8.8895C24.7707 8.8895 25.3163 9.29005 25.3232 9.9116C25.3163 10.5193 24.7707 10.913 23.9627 10.9061C23.1409 10.913 22.5953 10.5193 22.6022 9.9116ZM22.7058 14.6008H28.5414V13.9655H23.4655V12.1008H22.7058V14.6008ZM38.5232 9.58011H37.1144V6.11326H36.3478V14.7873H37.1144V10.2224H38.5232V9.58011ZM30.7539 12.5843H31.4445C32.7636 12.5843 34.1103 12.4945 35.6089 12.1975L35.5122 11.5414C34.0826 11.8384 32.7843 11.9385 31.5136 11.942V6.96961H30.7539V12.5843ZM43.0838 7.12845H39.755V12.453H43.0838V10.029H44.3959V14.3522H45.1349V6.29972H44.3959V9.38674H43.0838V7.12845ZM40.4802 11.8384V7.74309H42.3586V11.8384H40.4802ZM46.1363 14.7942H46.8752V6.11326H46.1363V14.7942ZM55.6346 6.11326H54.8681V14.808H55.6346V6.11326ZM48.8045 9.80801C48.8045 11.6588 49.723 12.8329 51.0214 12.8329C52.3059 12.8329 53.2382 11.6588 53.2382 9.80801C53.2382 7.96409 52.3059 6.79005 51.0214 6.78315C49.723 6.79005 48.8045 7.96409 48.8045 9.80801ZM49.5435 9.80801C49.5435 8.39917 50.1512 7.47376 51.0214 7.46685C51.8915 7.47376 52.4924 8.39917 52.4924 9.80801C52.4924 11.2238 51.8915 12.1492 51.0214 12.1492C50.1512 12.1492 49.5435 11.2238 49.5435 9.80801ZM64.5322 10.2845H59.2974V7.55663H64.4493V6.92127H58.5377V10.9199H64.5322V10.2845ZM57.5225 13.6064H65.4714V12.9641H57.5225V13.6064ZM71.8644 6.51381C70.566 6.50691 69.6061 7.34254 69.613 8.52348C69.6061 9.71133 70.566 10.547 71.8644 10.5401C72.593 10.5435 73.2145 10.2776 73.6185 9.82873H75.9044V10.768H76.671V6.11326H75.9044V7.23204H73.6254C73.2214 6.7797 72.5964 6.51036 71.8644 6.51381ZM70.345 8.52348C70.345 7.72928 70.9804 7.15608 71.8644 7.16298C72.7276 7.15608 73.3699 7.72928 73.3699 8.52348C73.3699 9.32459 72.7276 9.89779 71.8644 9.89779C70.9804 9.89779 70.345 9.32459 70.345 8.52348ZM71.0771 14.6768H76.671V11.2099H75.9044V12.308H71.8437V11.2099H71.0771V14.6768ZM71.8437 14.0483V12.9227H75.9044V14.0483H71.8437ZM73.9914 9.20028C74.0674 8.99309 74.1088 8.76519 74.1088 8.52348C74.1088 8.28867 74.0709 8.07113 73.9983 7.8674H75.9044V9.20028H73.9914ZM81.5699 8.44751V6.86602H80.7964V8.44751C80.7895 10.0428 79.7813 11.7141 78.5105 12.3425L79.0009 12.9572C79.9919 12.4289 80.8068 11.317 81.1901 10.0186C81.5768 11.2514 82.3918 12.2907 83.3793 12.7983L83.842 12.1768C82.5782 11.5967 81.5699 10.0152 81.5699 8.44751ZM82.8959 9.70442H84.9539V14.808H85.7136V6.11326H84.9539V9.07597H82.8959V9.70442Z" fill="#D5D7DD"/>
<path d="M23.453 28H24.75L25.7238 24.2541H27.2196L28.1975 28H29.4903L30.4641 24.2541H31.7072V23.2597H30.721L31.6948 19.5138H30.4434L29.5483 23.2597H28.0566L27.116 19.5138H25.8273L24.8867 23.2597H23.3909L22.4959 19.5138H21.2445L22.2182 23.2597H21.232V24.2541H22.4793L23.453 28ZM23.6312 24.2541H24.6381L24.1657 26.1436H24.0829L23.6312 24.2541ZM25.9807 23.2597L26.4365 21.5069H26.5028L26.9586 23.2597H25.9807ZM28.3052 24.2541H29.308L28.8564 26.1436H28.7776L28.3052 24.2541ZM36.1549 19.5138H34.8953L32.7861 20.8978V22.1285L34.8124 20.8066H34.8621V28H36.1549V19.5138ZM39.5986 27.1796H38.2892L37.6635 30.4199H38.658L39.5986 27.1796ZM44.1586 28.1367C46.1226 28.1367 47.2746 26.5414 47.2746 23.761C47.2746 21.0014 46.1102 19.3978 44.1586 19.3978C42.211 19.3978 41.0467 20.9972 41.0467 23.761C41.0425 26.5414 42.1986 28.1367 44.1586 28.1367ZM42.3312 23.761C42.3312 21.6478 43.0232 20.4959 44.1586 20.4959C45.2981 20.4959 45.99 21.6478 45.99 23.761C45.99 25.8785 45.3063 27.0262 44.1586 27.0262C43.0149 27.0262 42.3271 25.8785 42.3312 23.761ZM51.8048 28.1367C53.7689 28.1367 54.9208 26.5414 54.9208 23.761C54.9208 21.0014 53.7565 19.3978 51.8048 19.3978C49.8573 19.3978 48.6929 20.9972 48.6929 23.761C48.6888 26.5414 49.8449 28.1367 51.8048 28.1367ZM49.9775 23.761C49.9775 21.6478 50.6694 20.4959 51.8048 20.4959C52.9443 20.4959 53.6363 21.6478 53.6363 23.761C53.6363 25.8785 52.9526 27.0262 51.8048 27.0262C50.6612 27.0262 49.9733 25.8785 49.9775 23.761ZM59.4511 28.1367C61.4151 28.1367 62.5671 26.5414 62.5671 23.761C62.5671 21.0014 61.4027 19.3978 59.4511 19.3978C57.5035 19.3978 56.3392 20.9972 56.3392 23.761C56.335 26.5414 57.4911 28.1367 59.4511 28.1367ZM57.6237 23.761C57.6237 21.6478 58.3157 20.4959 59.4511 20.4959C60.5906 20.4959 61.2826 21.6478 61.2826 23.761C61.2826 25.8785 60.5988 27.0262 59.4511 27.0262C58.3074 27.0262 57.6196 25.8785 57.6237 23.761Z" fill="white"/>
<path d="M98.5 13.5L97.4425 14.5575L100.878 18L97.4425 21.4425L98.5 22.5L103 18L98.5 13.5Z" fill="white"/>
</svg>
