<svg width="124" height="36" viewBox="0 0 124 36" fill="none" xmlns="http://www.w3.org/2000/svg">
<rect width="124" height="36" rx="4" fill="#242528"/>
<path d="M11.1285 6.92818H10.2445L8.48343 8.10221V8.98619L10.203 7.84668H10.2445V14H11.1285V6.92818ZM13.5424 14.0552C13.8877 14.0552 14.1709 13.7721 14.1709 13.4268C14.1709 13.0815 13.8877 12.7983 13.5424 12.7983C13.1971 12.7983 12.9071 13.0815 12.914 13.4268C12.9071 13.7721 13.1971 14.0552 13.5424 14.0552Z" fill="#D5D7DD"/>
<path d="M26.1409 6.12017H25.3743V12.6257H26.1409V9.62845H27.4461V8.97928H26.1409V6.12017ZM19.3729 7.81215H24.5456V7.1837H22.3425V6.12017H21.5829V7.1837H19.3729V7.81215ZM19.8702 9.9116C19.8633 10.8854 20.7058 11.5138 21.9627 11.5138C23.1989 11.5138 24.0414 10.8854 24.0483 9.9116C24.0414 8.92403 23.1989 8.28867 21.9627 8.28867C20.7058 8.28867 19.8633 8.92403 19.8702 9.9116ZM20.6022 9.9116C20.5953 9.29005 21.1409 8.8895 21.9627 8.8895C22.7707 8.8895 23.3163 9.29005 23.3232 9.9116C23.3163 10.5193 22.7707 10.913 21.9627 10.9061C21.1409 10.913 20.5953 10.5193 20.6022 9.9116ZM20.7058 14.6008H26.5414V13.9655H21.4655V12.1008H20.7058V14.6008ZM36.5232 9.58011H35.1144V6.11326H34.3478V14.7873H35.1144V10.2224H36.5232V9.58011ZM28.7539 12.5843H29.4445C30.7636 12.5843 32.1103 12.4945 33.6089 12.1975L33.5122 11.5414C32.0826 11.8384 30.7843 11.9385 29.5136 11.942V6.96961H28.7539V12.5843ZM41.0838 7.12845H37.755V12.453H41.0838V10.029H42.3959V14.3522H43.1349V6.29972H42.3959V9.38674H41.0838V7.12845ZM38.4802 11.8384V7.74309H40.3586V11.8384H38.4802ZM44.1363 14.7942H44.8752V6.11326H44.1363V14.7942ZM53.6346 6.11326H52.8681V14.808H53.6346V6.11326ZM46.8045 9.80801C46.8045 11.6588 47.723 12.8329 49.0214 12.8329C50.3059 12.8329 51.2382 11.6588 51.2382 9.80801C51.2382 7.96409 50.3059 6.79005 49.0214 6.78315C47.723 6.79005 46.8045 7.96409 46.8045 9.80801ZM47.5435 9.80801C47.5435 8.39917 48.1512 7.47376 49.0214 7.46685C49.8915 7.47376 50.4924 8.39917 50.4924 9.80801C50.4924 11.2238 49.8915 12.1492 49.0214 12.1492C48.1512 12.1492 47.5435 11.2238 47.5435 9.80801ZM62.5322 10.2845H57.2974V7.55663H62.4493V6.92127H56.5377V10.9199H62.5322V10.2845ZM55.5225 13.6064H63.4714V12.9641H55.5225V13.6064ZM71.805 7.39088V6.72099H71.0039V7.39088C70.997 8.8826 69.3119 10.1948 67.8064 10.4848L68.1586 11.1271C69.4707 10.8198 70.845 9.88743 71.4079 8.61671C71.9707 9.89434 73.3485 10.8232 74.6572 11.1271L75.0163 10.4848C73.5039 10.2017 71.805 8.87569 71.805 7.39088ZM67.4749 13.6133H75.4238V12.971H67.4749V13.6133ZM81.3034 6.90055H77.0768V12.7017H77.7674C79.4387 12.6948 80.6058 12.6464 81.9802 12.4185L81.8973 11.7831C80.5679 12.0076 79.456 12.0663 77.8365 12.0663V9.96685H80.9926V9.3453H77.8365V7.54282H81.3034V6.90055ZM82.9263 14.7942H83.6929V6.11326H82.9263V14.7942ZM89.973 7.01796H86.0365V7.65331H89.2168C89.1788 8.18854 89.089 8.70304 88.9302 9.18992L85.5945 9.40746L85.7396 10.0773L88.6919 9.79765C88.1533 10.9682 87.1657 11.9696 85.5738 12.7707L86.0089 13.3577C89.0752 11.8177 89.9661 9.52486 89.973 7.01796ZM89.9454 10.2431H91.9896V14.7942H92.7492V6.11326H91.9896V9.60083H89.9454V10.2431Z" fill="#D5D7DD"/>
<path d="M21.4199 28H22.7169L23.6699 24.3246H25.2072L26.1602 28H27.4572L28.4102 24.3246H29.674V23.2721H28.6837L29.6616 19.5138H28.4102L27.5069 23.2721H26.0276L25.0829 19.5138H23.7942L22.8494 23.2721H21.366L20.4627 19.5138H19.2113L20.1892 23.2721H19.1989V24.3246H20.4627L21.4199 28ZM21.6188 24.3246H22.5843L22.1326 26.1271H22.0497L21.6188 24.3246ZM23.9434 23.2721L24.4033 21.4903H24.4696L24.9337 23.2721H23.9434ZM26.2928 24.3246H27.2583L26.8232 26.1312H26.7445L26.2928 24.3246ZM33.8401 28.116C35.6012 28.116 36.9064 27.0843 36.8981 25.6713C36.9064 24.5939 36.231 23.8149 35.0791 23.6533V23.587C35.9907 23.3674 36.5832 22.6713 36.5749 21.7141C36.5832 20.4544 35.5349 19.3978 33.8691 19.3978C32.2821 19.3978 31.01 20.3384 30.9686 21.7182H32.2117C32.2448 20.9517 33.0031 20.4793 33.8567 20.4793C34.7517 20.4793 35.3319 21.0014 35.3319 21.7804C35.3319 22.5925 34.6564 23.1312 33.6868 23.1312H32.9658V24.1837H33.6868C34.9051 24.1837 35.6012 24.7845 35.597 25.6257C35.6012 26.4461 34.8553 27.0055 33.8277 27.0055C32.883 27.0055 32.1412 26.529 32.0915 25.7831H30.7863C30.836 27.1713 32.0874 28.116 33.8401 28.116ZM39.7569 27.1796H38.4475L37.8218 30.4199H38.8163L39.7569 27.1796ZM44.2582 28.1367C46.2223 28.1367 47.3701 26.5414 47.3742 23.761C47.3742 21.0014 46.2057 19.3978 44.2582 19.3978C42.3107 19.3978 41.1463 20.9972 41.1463 23.761C41.1422 26.5414 42.2983 28.1367 44.2582 28.1367ZM42.4309 23.761C42.4309 21.6478 43.1187 20.4959 44.2582 20.4959C45.3977 20.4959 46.0897 21.6478 46.0897 23.761C46.0897 25.8785 45.406 27.0262 44.2582 27.0262C43.1146 27.0262 42.4267 25.8785 42.4309 23.761ZM51.8342 28.1367C53.7982 28.1367 54.946 26.5414 54.9502 23.761C54.9502 21.0014 53.7817 19.3978 51.8342 19.3978C49.8866 19.3978 48.7223 20.9972 48.7223 23.761C48.7181 26.5414 49.8742 28.1367 51.8342 28.1367ZM50.0068 23.761C50.0068 21.6478 50.6947 20.4959 51.8342 20.4959C52.9737 20.4959 53.6656 21.6478 53.6656 23.761C53.6656 25.8785 52.9819 27.0262 51.8342 27.0262C50.6905 27.0262 50.0027 25.8785 50.0068 23.761ZM59.4101 28.1367C61.3742 28.1367 62.522 26.5414 62.5261 23.761C62.5261 21.0014 61.3576 19.3978 59.4101 19.3978C57.4626 19.3978 56.2982 20.9972 56.2982 23.761C56.2941 26.5414 57.4502 28.1367 59.4101 28.1367ZM57.5827 23.761C57.5827 21.6478 58.2706 20.4959 59.4101 20.4959C60.5496 20.4959 61.2416 21.6478 61.2416 23.761C61.2416 25.8785 60.5579 27.0262 59.4101 27.0262C58.2665 27.0262 57.5786 25.8785 57.5827 23.761Z" fill="white"/>
<path d="M105.5 13.5L104.443 14.5575L107.878 18L104.443 21.4425L105.5 22.5L110 18L105.5 13.5Z" fill="white"/>
</svg>
