<svg width="44" height="44" viewBox="0 0 44 44" fill="none" xmlns="http://www.w3.org/2000/svg">
<g filter="url(#filter0_d_870_11389)">
<circle cx="22" cy="20" r="18" fill="white"/>
<path d="M22 17C22.825 17 23.5 16.325 23.5 15.5C23.5 14.675 22.825 14 22 14C21.175 14 20.5 14.675 20.5 15.5C20.5 16.325 21.175 17 22 17ZM22 18.5C21.175 18.5 20.5 19.175 20.5 20C20.5 20.825 21.175 21.5 22 21.5C22.825 21.5 23.5 20.825 23.5 20C23.5 19.175 22.825 18.5 22 18.5ZM22 23C21.175 23 20.5 23.675 20.5 24.5C20.5 25.325 21.175 26 22 26C22.825 26 23.5 25.325 23.5 24.5C23.5 23.675 22.825 23 22 23Z" fill="#222222"/>
</g>
<defs>
<filter id="filter0_d_870_11389" x="0" y="0" width="44" height="44" filterUnits="userSpaceOnUse" color-interpolation-filters="sRGB">
<feFlood flood-opacity="0" result="BackgroundImageFix"/>
<feColorMatrix in="SourceAlpha" type="matrix" values="0 0 0 0 0 0 0 0 0 0 0 0 0 0 0 0 0 0 127 0" result="hardAlpha"/>
<feOffset dy="2"/>
<feGaussianBlur stdDeviation="2"/>
<feComposite in2="hardAlpha" operator="out"/>
<feColorMatrix type="matrix" values="0 0 0 0 0 0 0 0 0 0 0 0 0 0 0 0 0 0 0.2 0"/>
<feBlend mode="normal" in2="BackgroundImageFix" result="effect1_dropShadow_870_11389"/>
<feBlend mode="normal" in="SourceGraphic" in2="effect1_dropShadow_870_11389" result="shape"/>
</filter>
</defs>
</svg>
